<svg t="1688629145229" class="icon" viewBox="0 0 1024 1024" version="1.1" xmlns="http://www.w3.org/2000/svg" p-id="3440" width="128" height="128"><path d="M454.174118 3.312941A512 512 0 0 0 137.637647 860.16 484.894118 484.894118 0 0 0 183.416471 903.529412a510.192941 510.192941 0 0 0 657.167058 0 565.308235 565.308235 0 0 0 45.477647-43.670588A512 512 0 0 0 454.174118 3.312941zM512 963.764706a449.054118 449.054118 0 0 1-297.863529-113.242353 364.122353 364.122353 0 0 1 180.705882-138.24l48.489412-11.143529a5.722353 5.722353 0 0 0 3.011764-8.432942L421.647059 643.011765a530.371765 530.371765 0 0 1-75.294118-236.42353 165.647059 165.647059 0 0 1 331.294118 0 530.371765 530.371765 0 0 1-73.788235 236.42353l-27.105883 49.694117a5.421176 5.421176 0 0 0 2.710588 7.830589l49.091765 11.444705a366.230588 366.230588 0 0 1 180.705882 138.24A451.764706 451.764706 0 0 1 512 963.764706z m341.232941-156.310588a421.647059 421.647059 0 0 0-174.682353-140.047059 15.962353 15.962353 0 0 1-7.830588-21.985883 599.943529 599.943529 0 0 0 67.162353-238.832941 225.882353 225.882353 0 0 0-451.764706 0 606.268235 606.268235 0 0 0 67.162353 239.134118 15.36 15.36 0 0 1-7.529412 21.383529 424.056471 424.056471 0 0 0-174.682353 140.348236A451.764706 451.764706 0 0 1 60.235294 495.736471 451.764706 451.764706 0 0 1 963.764706 512a451.764706 451.764706 0 0 1-110.531765 295.454118z" p-id="3441"></path></svg>